<svg width="256" height="256" viewBox="0 0 256 256" fill="none" xmlns="http://www.w3.org/2000/svg">
  <rect width="256" height="256" rx="128" fill="url(#paint0_linear_1_2)"/>
  <path d="M85.657 165V90.6H122.457C128.257 90.6 133.157 91.6 137.157 93.6C141.157 95.6 144.157 98.4 146.157 102C148.157 105.6 149.157 109.8 149.157 114.6C149.157 119.4 148.157 123.6 146.157 127.2C144.157 130.8 141.157 133.6 137.157 135.6C133.157 137.6 128.257 138.6 122.457 138.6H99.057V124.2H119.457C122.657 124.2 125.257 123.7 127.257 122.7C129.257 121.7 130.757 120.3 131.757 118.5C132.757 116.7 133.257 114.6 133.257 112.2C133.257 109.8 132.757 107.7 131.757 105.9C130.757 104.1 129.257 102.7 127.257 101.7C125.257 100.7 122.657 100.2 119.457 100.2H101.157V165H85.657Z" fill="white"/>
  <path d="M153.784 165V90.6H169.284V165H153.784Z" fill="white"/>
  <path d="M177.05 136.8L194.45 134.4C195.05 137.6 196.05 140.4 197.45 142.8C198.85 145.2 200.75 147.1 203.15 148.5C205.55 149.9 208.45 150.6 211.85 150.6C215.85 150.6 219.15 149.7 221.75 147.9C224.35 146.1 225.65 143.8 225.65 141C225.65 138.8 224.85 137 223.25 135.6C221.65 134.2 218.85 133 214.85 132L203.05 129.6C195.65 128.2 190.25 125.8 186.85 122.4C183.45 119 181.75 114.6 181.75 109.2C181.75 105.2 182.85 101.6 185.05 98.4C187.25 95.2 190.35 92.7 194.35 90.9C198.35 89.1 202.95 88.2 208.15 88.2C215.95 88.2 222.05 89.9 226.45 93.3C230.85 96.7 233.35 101.4 233.95 107.4L216.25 109.8C215.85 106.4 214.65 103.8 212.65 102C210.65 100.2 207.95 99.3 204.55 99.3C201.15 99.3 198.35 100.1 196.15 101.7C193.95 103.3 192.85 105.4 192.85 108C192.85 109.8 193.55 111.4 194.95 112.8C196.35 114.2 198.75 115.2 202.15 115.8L213.95 118.2C221.35 119.6 226.85 122.1 230.45 125.7C234.05 129.3 235.85 134 235.85 139.8C235.85 144.2 234.65 148.2 232.25 151.8C229.85 155.4 226.45 158.2 222.05 160.2C217.65 162.2 212.45 163.2 206.45 163.2C198.25 163.2 191.85 161.4 187.25 157.8C182.65 154.2 179.25 146.4 177.05 136.8Z" fill="#FF6600"/>
  <defs>
    <linearGradient id="paint0_linear_1_2" x1="0" y1="0" x2="256" y2="256" gradientUnits="userSpaceOnUse">
      <stop stop-color="#0066FF"/>
      <stop offset="1" stop-color="#00FFC0"/>
    </linearGradient>
  </defs>
</svg>